<?xml version="1.0" encoding="UTF-8"?>
<svg id="_レイヤー_2" data-name="レイヤー 2" xmlns="http://www.w3.org/2000/svg" viewBox="0 0 95.24 11.34">
  <defs>
    <style>
      .cls-1 {
        fill: #f19ec0;
      }

      .cls-2 {
        fill: #231815;
      }

      .cls-3 {
        fill: #71c5bb;
      }
    </style>
  </defs>
  <g id="_レイヤー_1-2" data-name="レイヤー 1">
    <g>
      <rect class="cls-3" x="70.3" y="0" width="2.27" height="2.27"/>
      <rect class="cls-3" x="70.3" y="2.27" width="2.27" height="2.27"/>
      <rect class="cls-3" x="70.3" y="4.54" width="2.27" height="2.27"/>
      <rect class="cls-3" x="70.3" y="6.8" width="2.27" height="2.27"/>
      <rect class="cls-3" x="70.3" y="9.07" width="2.27" height="2.27"/>
    </g>
    <rect class="cls-2" x="65.76" y="9.07" width="2.27" height="2.27"/>
    <rect class="cls-2" x="68.03" y="9.07" width="2.27" height="2.27"/>
    <rect class="cls-2" x="68.03" y="6.8" width="2.27" height="2.27"/>
    <rect class="cls-2" x="65.76" y="4.54" width="2.27" height="2.27" transform="translate(72.57 -61.23) rotate(90)"/>
    <rect class="cls-2" x="68.03" y="4.54" width="2.27" height="2.27"/>
    <g>
      <rect class="cls-2" x="2.27" y="0" width="2.27" height="2.27"/>
      <rect class="cls-2" x="2.27" y="2.27" width="2.27" height="2.27"/>
      <rect class="cls-2" x="2.27" y="4.54" width="2.27" height="2.27"/>
      <rect class="cls-2" x="2.27" y="6.8" width="2.27" height="2.27"/>
      <rect class="cls-2" x="2.27" y="9.07" width="2.27" height="2.27"/>
    </g>
    <rect class="cls-2" x="81.64" y="9.07" width="2.27" height="2.27"/>
    <rect class="cls-2" x="86.17" y="9.07" width="2.27" height="2.27"/>
    <rect class="cls-2" x="83.91" y="2.27" width="2.27" height="2.27"/>
    <rect class="cls-2" x="83.91" y="6.8" width="2.27" height="2.27"/>
    <rect class="cls-2" x="83.91" y="4.54" width="2.27" height="2.27"/>
    <rect class="cls-2" x="83.91" y="9.07" width="2.27" height="2.27"/>
    <rect class="cls-2" x="83.91" y="0" width="2.27" height="2.27" transform="translate(86.17 -83.91) rotate(90)"/>
    <rect class="cls-2" x="81.64" y="0" width="2.27" height="2.27"/>
    <rect class="cls-2" x="86.17" y="0" width="2.27" height="2.27"/>
    <rect class="cls-2" x="54.43" y="9.07" width="2.27" height="2.27"/>
    <rect class="cls-2" x="58.96" y="9.07" width="2.27" height="2.27"/>
    <rect class="cls-2" x="56.69" y="2.27" width="2.27" height="2.27"/>
    <rect class="cls-2" x="56.69" y="6.8" width="2.27" height="2.27"/>
    <rect class="cls-2" x="56.69" y="4.54" width="2.27" height="2.27"/>
    <rect class="cls-2" x="56.69" y="9.07" width="2.27" height="2.27"/>
    <rect class="cls-2" x="56.69" y="0" width="2.27" height="2.27" transform="translate(58.96 -56.69) rotate(90)"/>
    <rect class="cls-2" x="54.43" y="0" width="2.27" height="2.27"/>
    <rect class="cls-2" x="58.96" y="0" width="2.27" height="2.27"/>
    <rect class="cls-2" x="24.94" y="9.07" width="2.27" height="2.27"/>
    <rect class="cls-2" x="29.48" y="9.07" width="2.27" height="2.27"/>
    <rect class="cls-2" x="27.21" y="2.27" width="2.27" height="2.27"/>
    <rect class="cls-2" x="27.21" y="6.8" width="2.27" height="2.27"/>
    <rect class="cls-2" x="27.21" y="4.54" width="2.27" height="2.27"/>
    <rect class="cls-2" x="27.21" y="9.07" width="2.27" height="2.27"/>
    <rect class="cls-2" x="27.21" y="0" width="2.27" height="2.27" transform="translate(29.48 -27.21) rotate(90)"/>
    <rect class="cls-2" x="24.94" y="0" width="2.27" height="2.27"/>
    <rect class="cls-2" x="29.48" y="0" width="2.27" height="2.27"/>
    <rect class="cls-3" x="92.98" y="0" width="2.27" height="2.27"/>
    <rect class="cls-3" x="90.71" y="0" width="2.27" height="2.27"/>
    <g>
      <rect class="cls-3" x="6.8" y="6.8" width="2.27" height="2.27"/>
      <rect class="cls-3" x="4.54" y="9.07" width="2.27" height="2.27"/>
      <rect class="cls-3" x="4.54" y="6.8" width="2.27" height="2.27"/>
      <rect class="cls-3" x="4.54" y="4.54" width="2.27" height="2.27"/>
      <rect class="cls-3" x="6.8" y="9.07" width="2.27" height="2.27"/>
      <rect class="cls-3" x="9.07" y="4.54" width="2.27" height="2.27"/>
      <rect class="cls-3" x="9.07" y="6.8" width="2.27" height="2.27"/>
      <rect class="cls-3" x="9.07" y="9.07" width="2.27" height="2.27"/>
      <rect class="cls-3" x="4.54" y="2.27" width="2.27" height="2.27"/>
      <rect class="cls-3" x="9.07" y="2.27" width="2.27" height="2.27"/>
    </g>
    <rect class="cls-3" x="18.14" y="2.27" width="2.27" height="2.27"/>
    <rect class="cls-3" x="20.41" y="2.27" width="2.27" height="2.27"/>
    <rect class="cls-3" x="18.14" y="6.8" width="2.27" height="2.27"/>
    <rect class="cls-3" x="20.41" y="6.8" width="2.27" height="2.27"/>
    <rect class="cls-3" x="24.94" y="2.27" width="2.27" height="2.27"/>
    <rect class="cls-3" x="24.94" y="4.54" width="2.27" height="2.27"/>
    <rect class="cls-3" x="24.94" y="6.8" width="2.27" height="2.27"/>
    <rect class="cls-3" x="29.48" y="2.27" width="2.27" height="2.27"/>
    <rect class="cls-3" x="29.48" y="4.54" width="2.27" height="2.27"/>
    <rect class="cls-3" x="29.48" y="6.8" width="2.27" height="2.27"/>
    <rect class="cls-3" x="36.28" y="2.27" width="2.27" height="2.27"/>
    <rect class="cls-3" x="36.28" y="4.54" width="2.27" height="2.27"/>
    <rect class="cls-3" x="36.28" y="6.8" width="2.27" height="2.27"/>
    <rect class="cls-3" x="38.55" y="4.54" width="2.27" height="2.27"/>
    <rect class="cls-3" x="40.82" y="0" width="2.27" height="2.27"/>
    <rect class="cls-3" x="40.82" y="9.07" width="2.27" height="2.27"/>
    <rect class="cls-3" x="47.62" y="2.27" width="2.27" height="2.27"/>
    <rect class="cls-3" x="47.62" y="6.8" width="2.27" height="2.27"/>
    <rect class="cls-3" x="47.62" y="9.07" width="2.27" height="2.27"/>
    <rect class="cls-3" x="54.43" y="2.27" width="2.27" height="2.27"/>
    <rect class="cls-3" x="54.43" y="4.54" width="2.27" height="2.27"/>
    <rect class="cls-3" x="54.43" y="6.8" width="2.27" height="2.27"/>
    <rect class="cls-3" x="58.96" y="2.27" width="2.27" height="2.27"/>
    <rect class="cls-3" x="58.96" y="4.54" width="2.27" height="2.27"/>
    <rect class="cls-3" x="58.96" y="6.8" width="2.27" height="2.27"/>
    <rect class="cls-3" x="65.76" y="2.27" width="2.27" height="2.27"/>
    <rect class="cls-3" x="68.03" y="2.27" width="2.27" height="2.27"/>
    <rect class="cls-3" x="65.76" y="6.8" width="2.27" height="2.27"/>
    <rect class="cls-3" x="63.5" y="6.8" width="2.27" height="2.27"/>
    <rect class="cls-3" x="74.83" y="2.27" width="2.27" height="2.27"/>
    <rect class="cls-3" x="74.83" y="6.8" width="2.27" height="2.27"/>
    <rect class="cls-3" x="74.83" y="9.07" width="2.27" height="2.27"/>
    <rect class="cls-3" x="81.64" y="2.27" width="2.27" height="2.27"/>
    <rect class="cls-3" x="81.64" y="4.54" width="2.27" height="2.27"/>
    <rect class="cls-3" x="81.64" y="6.8" width="2.27" height="2.27"/>
    <rect class="cls-3" x="86.17" y="2.27" width="2.27" height="2.27"/>
    <rect class="cls-3" x="86.17" y="4.54" width="2.27" height="2.27"/>
    <rect class="cls-3" x="86.17" y="6.8" width="2.27" height="2.27"/>
    <rect class="cls-3" x="88.44" width="2.27" height="2.27"/>
    <rect class="cls-3" x="88.44" y="2.27" width="2.27" height="2.27"/>
    <rect class="cls-3" x="88.44" y="4.54" width="2.27" height="2.27"/>
    <rect class="cls-3" x="88.44" y="6.8" width="2.27" height="2.27"/>
    <rect class="cls-3" x="88.44" y="9.07" width="2.27" height="2.27"/>
    <g>
      <rect class="cls-3" y="0" width="2.27" height="2.27"/>
      <rect class="cls-3" y="2.27" width="2.27" height="2.27"/>
      <rect class="cls-3" y="4.54" width="2.27" height="2.27"/>
      <rect class="cls-3" y="6.8" width="2.27" height="2.27"/>
      <rect class="cls-3" y="9.07" width="2.27" height="2.27"/>
    </g>
    <rect class="cls-3" x="90.71" y="2.27" width="2.27" height="2.27"/>
    <rect class="cls-3" x="92.98" y="2.27" width="2.27" height="2.27"/>
    <rect class="cls-3" x="90.71" y="4.54" width="2.27" height="2.27"/>
    <rect class="cls-3" x="92.98" y="4.54" width="2.27" height="2.27"/>
    <rect class="cls-3" x="90.71" y="6.8" width="2.27" height="2.27"/>
    <rect class="cls-3" x="92.98" y="6.8" width="2.27" height="2.27"/>
    <rect class="cls-3" x="90.71" y="9.07" width="2.27" height="2.27"/>
    <rect class="cls-3" x="92.98" y="9.07" width="2.27" height="2.27"/>
    <g>
      <rect class="cls-1" x="89.57" y="0" width="1.13" height="1.13"/>
      <rect class="cls-1" x="88.44" y="0" width="1.13" height="1.13"/>
      <rect class="cls-1" x="94.11" y="0" width="1.13" height="1.13"/>
      <rect class="cls-1" x="92.98" y="0" width="1.13" height="1.13"/>
      <rect class="cls-1" x="91.84" y="0" width="1.13" height="1.13"/>
      <rect class="cls-1" x="90.71" y="0" width="1.13" height="1.13"/>
      <rect class="cls-1" x="91.28" y="1.13" width="1.13" height="1.13"/>
      <rect class="cls-1" x="91.28" y="2.27" width="1.13" height="1.13"/>
      <rect class="cls-1" x="91.28" y="3.4" width="1.13" height="1.13"/>
      <rect class="cls-1" x="91.28" y="4.54" width="1.13" height="1.13"/>
      <rect class="cls-1" x="91.28" y="5.67" width="1.13" height="1.13"/>
      <rect class="cls-1" x="91.28" y="6.8" width="1.13" height="1.13"/>
      <rect class="cls-1" x="91.28" y="7.94" width="1.13" height="1.13"/>
      <rect class="cls-1" x="91.28" y="9.07" width="1.13" height="1.13"/>
      <rect class="cls-1" x="89.57" y="10.2" width="1.13" height="1.13"/>
      <rect class="cls-1" x="88.44" y="10.2" width="1.13" height="1.13"/>
      <rect class="cls-1" x="94.11" y="10.2" width="1.13" height="1.13"/>
      <rect class="cls-1" x="92.98" y="10.2" width="1.13" height="1.13"/>
      <rect class="cls-1" x="91.84" y="10.2" width="1.13" height="1.13"/>
      <rect class="cls-1" x="90.71" y="10.2" width="1.13" height="1.13"/>
    </g>
    <g>
      <rect class="cls-1" x="82.77" y="0" width="1.13" height="1.13"/>
      <rect class="cls-1" x="81.64" y="0" width="1.13" height="1.13"/>
      <rect class="cls-1" x="87.31" y="0" width="1.13" height="1.13"/>
      <rect class="cls-1" x="86.17" y="0" width="1.13" height="1.13"/>
      <rect class="cls-1" x="85.04" y="0" width="1.13" height="1.13"/>
      <rect class="cls-1" x="83.91" y="0" width="1.13" height="1.13"/>
      <rect class="cls-1" x="84.47" y="1.13" width="1.13" height="1.13"/>
      <rect class="cls-1" x="84.47" y="2.27" width="1.13" height="1.13"/>
      <rect class="cls-1" x="84.47" y="3.4" width="1.13" height="1.13"/>
      <rect class="cls-1" x="84.47" y="4.54" width="1.13" height="1.13"/>
      <rect class="cls-1" x="84.47" y="5.67" width="1.13" height="1.13"/>
      <rect class="cls-1" x="84.47" y="6.8" width="1.13" height="1.13"/>
      <rect class="cls-1" x="84.47" y="7.94" width="1.13" height="1.13"/>
      <rect class="cls-1" x="84.47" y="9.07" width="1.13" height="1.13"/>
      <rect class="cls-1" x="82.77" y="10.2" width="1.13" height="1.13"/>
      <rect class="cls-1" x="81.64" y="10.2" width="1.13" height="1.13"/>
      <rect class="cls-1" x="87.31" y="10.2" width="1.13" height="1.13"/>
      <rect class="cls-1" x="86.17" y="10.2" width="1.13" height="1.13"/>
      <rect class="cls-1" x="85.04" y="10.2" width="1.13" height="1.13"/>
      <rect class="cls-1" x="83.91" y="10.2" width="1.13" height="1.13"/>
    </g>
    <rect class="cls-1" x="55.56" y="0" width="1.13" height="1.13"/>
    <rect class="cls-1" x="54.43" y="0" width="1.13" height="1.13"/>
    <rect class="cls-1" x="60.09" y="0" width="1.13" height="1.13"/>
    <rect class="cls-1" x="58.96" y="0" width="1.13" height="1.13"/>
    <rect class="cls-1" x="57.83" y="0" width="1.13" height="1.13"/>
    <rect class="cls-1" x="56.69" y="0" width="1.13" height="1.13"/>
    <rect class="cls-1" x="57.26" y="1.13" width="1.13" height="1.13"/>
    <rect class="cls-1" x="57.26" y="2.27" width="1.13" height="1.13"/>
    <rect class="cls-1" x="57.26" y="3.4" width="1.13" height="1.13"/>
    <rect class="cls-1" x="57.26" y="4.54" width="1.13" height="1.13"/>
    <rect class="cls-1" x="57.26" y="5.67" width="1.13" height="1.13"/>
    <rect class="cls-1" x="57.26" y="6.8" width="1.13" height="1.13"/>
    <rect class="cls-1" x="57.26" y="7.94" width="1.13" height="1.13"/>
    <rect class="cls-1" x="57.26" y="9.07" width="1.13" height="1.13"/>
    <rect class="cls-1" x="55.56" y="10.2" width="1.13" height="1.13"/>
    <rect class="cls-1" x="54.43" y="10.2" width="1.13" height="1.13"/>
    <rect class="cls-1" x="60.09" y="10.2" width="1.13" height="1.13"/>
    <rect class="cls-1" x="58.96" y="10.2" width="1.13" height="1.13"/>
    <rect class="cls-1" x="57.83" y="10.2" width="1.13" height="1.13"/>
    <rect class="cls-1" x="56.69" y="10.2" width="1.13" height="1.13"/>
    <g>
      <rect class="cls-1" x="26.08" y="0" width="1.13" height="1.13"/>
      <rect class="cls-1" x="24.94" y="0" width="1.13" height="1.13"/>
      <rect class="cls-1" x="30.61" y="0" width="1.13" height="1.13"/>
      <rect class="cls-1" x="29.48" y="0" width="1.13" height="1.13"/>
      <rect class="cls-1" x="28.35" y="0" width="1.13" height="1.13"/>
      <rect class="cls-1" x="27.21" y="0" width="1.13" height="1.13"/>
      <rect class="cls-1" x="27.78" y="1.13" width="1.13" height="1.13"/>
      <rect class="cls-1" x="27.78" y="2.27" width="1.13" height="1.13"/>
      <rect class="cls-1" x="27.78" y="3.4" width="1.13" height="1.13"/>
      <rect class="cls-1" x="27.78" y="4.54" width="1.13" height="1.13"/>
      <rect class="cls-1" x="27.78" y="5.67" width="1.13" height="1.13"/>
      <rect class="cls-1" x="27.78" y="6.8" width="1.13" height="1.13"/>
      <rect class="cls-1" x="27.78" y="7.94" width="1.13" height="1.13"/>
      <rect class="cls-1" x="27.78" y="9.07" width="1.13" height="1.13"/>
      <rect class="cls-1" x="26.08" y="10.2" width="1.13" height="1.13"/>
      <rect class="cls-1" x="24.94" y="10.2" width="1.13" height="1.13"/>
      <rect class="cls-1" x="30.61" y="10.2" width="1.13" height="1.13"/>
      <rect class="cls-1" x="29.48" y="10.2" width="1.13" height="1.13"/>
      <rect class="cls-1" x="28.35" y="10.2" width="1.13" height="1.13"/>
      <rect class="cls-1" x="27.21" y="10.2" width="1.13" height="1.13"/>
    </g>
    <rect class="cls-2" x="9.07" y="0" width="2.27" height="2.27" transform="translate(11.34 -9.07) rotate(90)"/>
    <rect class="cls-2" x="4.54" y="0" width="2.27" height="2.27" transform="translate(6.8 -4.54) rotate(90)"/>
    <rect class="cls-2" x="6.8" y="0" width="2.27" height="2.27"/>
    <rect class="cls-2" x="6.8" y="2.27" width="2.27" height="2.27"/>
    <rect class="cls-2" x="6.8" y="4.54" width="2.27" height="2.27"/>
    <rect class="cls-2" x="11.34" y="0" width="2.27" height="2.27"/>
    <rect class="cls-2" x="11.34" y="2.27" width="2.27" height="2.27"/>
    <rect class="cls-2" x="11.34" y="4.54" width="2.27" height="2.27"/>
    <rect class="cls-2" x="11.34" y="6.8" width="2.27" height="2.27"/>
    <rect class="cls-2" x="11.34" y="9.07" width="2.27" height="2.27"/>
    <rect class="cls-2" x="18.14" y="0" width="2.27" height="2.27" transform="translate(20.41 -18.14) rotate(90)"/>
    <rect class="cls-2" x="20.41" y="0" width="2.27" height="2.27"/>
    <rect class="cls-2" x="18.14" y="4.54" width="2.27" height="2.27" transform="translate(24.94 -13.61) rotate(90)"/>
    <rect class="cls-2" x="20.41" y="4.54" width="2.27" height="2.27"/>
    <rect class="cls-2" x="18.14" y="9.07" width="2.27" height="2.27" transform="translate(29.48 -9.07) rotate(90)"/>
    <rect class="cls-2" x="20.41" y="9.07" width="2.27" height="2.27"/>
    <rect class="cls-2" x="34.02" y="2.27" width="2.27" height="2.27"/>
    <rect class="cls-2" x="34.02" y="6.8" width="2.27" height="2.27"/>
    <rect class="cls-2" x="34.02" y="9.07" width="2.27" height="2.27"/>
    <rect class="cls-2" x="34.02" y="0" width="2.27" height="2.27"/>
    <rect class="cls-2" x="34.02" y="4.54" width="2.27" height="2.27"/>
    <rect class="cls-2" x="36.28" y="0" width="2.27" height="2.27" transform="translate(38.55 -36.28) rotate(90)"/>
    <rect class="cls-2" x="38.55" y="0" width="2.27" height="2.27"/>
    <rect class="cls-2" x="38.55" y="2.27" width="2.27" height="2.27"/>
    <rect class="cls-2" x="40.82" y="2.27" width="2.27" height="2.27"/>
    <rect class="cls-2" x="40.82" y="6.8" width="2.27" height="2.27"/>
    <rect class="cls-2" x="40.82" y="4.54" width="2.27" height="2.27"/>
    <rect class="cls-2" x="45.35" y="2.27" width="2.27" height="2.27"/>
    <rect class="cls-2" x="45.35" y="6.8" width="2.27" height="2.27"/>
    <rect class="cls-2" x="45.35" y="9.07" width="2.27" height="2.27"/>
    <rect class="cls-2" x="45.35" y="0" width="2.27" height="2.27"/>
    <rect class="cls-2" x="47.62" y="0" width="2.27" height="2.27" transform="translate(49.89 -47.62) rotate(90)"/>
    <rect class="cls-2" x="45.35" y="4.54" width="2.27" height="2.27"/>
    <rect class="cls-2" x="47.62" y="4.54" width="2.27" height="2.27" transform="translate(54.43 -43.09) rotate(90)"/>
    <rect class="cls-2" x="49.89" y="2.27" width="2.27" height="2.27"/>
    <rect class="cls-2" x="49.89" y="6.8" width="2.27" height="2.27"/>
    <rect class="cls-2" x="49.89" y="9.07" width="2.27" height="2.27"/>
    <rect class="cls-2" x="49.89" y="0" width="2.27" height="2.27"/>
    <rect class="cls-2" x="49.89" y="4.54" width="2.27" height="2.27"/>
    <rect class="cls-2" x="77.1" y="2.27" width="2.27" height="2.27"/>
    <rect class="cls-2" x="77.1" y="6.8" width="2.27" height="2.27"/>
    <rect class="cls-2" x="77.1" y="9.07" width="2.27" height="2.27"/>
    <rect class="cls-2" x="72.57" y="0" width="2.27" height="2.27"/>
    <rect class="cls-2" x="77.1" y="4.54" width="2.27" height="2.27"/>
    <rect class="cls-2" x="77.1" y="0" width="2.27" height="2.27"/>
    <rect class="cls-2" x="74.83" y="0" width="2.27" height="2.27" transform="translate(77.1 -74.83) rotate(90)"/>
    <rect class="cls-2" x="77.1" y="0" width="2.27" height="2.27"/>
    <rect class="cls-2" x="36.28" y="9.07" width="2.27" height="2.27" transform="translate(47.62 -27.21) rotate(90)"/>
    <rect class="cls-2" x="38.55" y="9.07" width="2.27" height="2.27"/>
    <rect class="cls-2" x="38.55" y="6.8" width="2.27" height="2.27"/>
    <rect class="cls-2" x="72.57" y="2.27" width="2.27" height="2.27"/>
    <rect class="cls-2" x="72.57" y="6.8" width="2.27" height="2.27"/>
    <rect class="cls-2" x="72.57" y="9.07" width="2.27" height="2.27"/>
    <rect class="cls-2" x="72.57" y="4.54" width="2.27" height="2.27"/>
    <rect class="cls-2" x="72.57" y="0" width="2.27" height="2.27"/>
    <rect class="cls-2" x="74.83" y="4.54" width="2.27" height="2.27" transform="translate(81.64 -70.3) rotate(90)"/>
    <g>
      <rect class="cls-3" x="13.61" y="0" width="2.27" height="2.27"/>
      <rect class="cls-3" x="13.61" y="2.27" width="2.27" height="2.27"/>
      <rect class="cls-3" x="13.61" y="4.54" width="2.27" height="2.27"/>
      <rect class="cls-3" x="13.61" y="6.8" width="2.27" height="2.27"/>
      <rect class="cls-3" x="13.61" y="9.07" width="2.27" height="2.27"/>
    </g>
    <rect class="cls-2" x="15.87" y="0" width="2.27" height="2.27"/>
    <rect class="cls-2" x="15.87" y="2.27" width="2.27" height="2.27"/>
    <rect class="cls-2" x="15.87" y="4.54" width="2.27" height="2.27"/>
    <rect class="cls-2" x="15.87" y="6.8" width="2.27" height="2.27"/>
    <rect class="cls-2" x="15.87" y="9.07" width="2.27" height="2.27"/>
    <g>
      <rect class="cls-3" x="22.68" y="0" width="2.27" height="2.27"/>
      <rect class="cls-3" x="22.68" y="2.27" width="2.27" height="2.27"/>
      <rect class="cls-3" x="22.68" y="4.54" width="2.27" height="2.27"/>
      <rect class="cls-3" x="22.68" y="6.8" width="2.27" height="2.27"/>
      <rect class="cls-3" x="22.68" y="9.07" width="2.27" height="2.27"/>
    </g>
    <g>
      <rect class="cls-3" x="31.75" y="0" width="2.27" height="2.27"/>
      <rect class="cls-3" x="31.75" y="2.27" width="2.27" height="2.27"/>
      <rect class="cls-3" x="31.75" y="4.54" width="2.27" height="2.27"/>
      <rect class="cls-3" x="31.75" y="6.8" width="2.27" height="2.27"/>
      <rect class="cls-3" x="31.75" y="9.07" width="2.27" height="2.27"/>
    </g>
    <g>
      <rect class="cls-3" x="43.09" y="0" width="2.27" height="2.27"/>
      <rect class="cls-3" x="43.09" y="2.27" width="2.27" height="2.27"/>
      <rect class="cls-3" x="43.09" y="4.54" width="2.27" height="2.27"/>
      <rect class="cls-3" x="43.09" y="6.8" width="2.27" height="2.27"/>
      <rect class="cls-3" x="43.09" y="9.07" width="2.27" height="2.27"/>
    </g>
    <g>
      <rect class="cls-3" x="52.16" y="0" width="2.27" height="2.27"/>
      <rect class="cls-3" x="52.16" y="2.27" width="2.27" height="2.27"/>
      <rect class="cls-3" x="52.16" y="4.54" width="2.27" height="2.27"/>
      <rect class="cls-3" x="52.16" y="6.8" width="2.27" height="2.27"/>
      <rect class="cls-3" x="52.16" y="9.07" width="2.27" height="2.27"/>
    </g>
    <g>
      <rect class="cls-3" x="61.23" y="0" width="2.27" height="2.27"/>
      <rect class="cls-3" x="61.23" y="2.27" width="2.27" height="2.27"/>
      <rect class="cls-3" x="61.23" y="4.54" width="2.27" height="2.27"/>
      <rect class="cls-3" x="61.23" y="6.8" width="2.27" height="2.27"/>
      <rect class="cls-3" x="61.23" y="9.07" width="2.27" height="2.27"/>
    </g>
    <rect class="cls-2" x="63.5" y="2.27" width="2.27" height="2.27"/>
    <rect class="cls-2" x="63.5" y="9.07" width="2.27" height="2.27"/>
    <rect class="cls-2" x="63.5" y="0" width="2.27" height="2.27"/>
    <rect class="cls-2" x="63.5" y="4.54" width="2.27" height="2.27"/>
    <g>
      <rect class="cls-1" x="65.2" y="7.94" width="1.13" height="1.13"/>
      <rect class="cls-1" x="67.46" y="7.94" width="1.13" height="1.13"/>
      <rect class="cls-1" x="71.43" y="0" width="1.13" height="1.13"/>
      <rect class="cls-1" x="70.3" y="0" width="1.13" height="1.13"/>
      <rect class="cls-1" x="70.87" y="1.13" width="1.13" height="1.13"/>
      <rect class="cls-1" x="70.3" y="2.27" width="1.13" height="1.13"/>
      <rect class="cls-1" x="69.73" y="3.4" width="1.13" height="1.13"/>
      <rect class="cls-1" x="69.17" y="4.54" width="1.13" height="1.13"/>
      <rect class="cls-1" x="68.6" y="5.67" width="1.13" height="1.13"/>
      <rect class="cls-1" x="68.03" y="6.8" width="1.13" height="1.13"/>
      <rect class="cls-1" x="66.9" y="9.07" width="1.13" height="1.13"/>
      <rect class="cls-1" x="66.33" y="10.2" width="1.13" height="1.13"/>
      <rect class="cls-1" x="65.76" y="9.07" width="1.13" height="1.13"/>
      <rect class="cls-1" x="64.63" y="6.8" width="1.13" height="1.13"/>
      <rect class="cls-1" x="64.06" y="5.67" width="1.13" height="1.13"/>
      <rect class="cls-1" x="63.5" y="4.54" width="1.13" height="1.13"/>
      <rect class="cls-1" x="62.93" y="3.4" width="1.13" height="1.13"/>
      <rect class="cls-1" x="62.36" y="2.27" width="1.13" height="1.13"/>
      <rect class="cls-1" x="61.8" y="1.13" width="1.13" height="1.13"/>
      <rect class="cls-1" x="61.23" y="0" width="1.13" height="1.13"/>
      <rect class="cls-1" x="62.36" y="0" width="1.13" height="1.13"/>
    </g>
    <rect class="cls-2" x="65.76" y="0" width="2.27" height="2.27" transform="translate(68.03 -65.76) rotate(90)"/>
    <rect class="cls-2" x="68.03" y="0" width="2.27" height="2.27"/>
    <g>
      <rect class="cls-3" x="79.37" y="0" width="2.27" height="2.27"/>
      <rect class="cls-3" x="79.37" y="2.27" width="2.27" height="2.27"/>
      <rect class="cls-3" x="79.37" y="4.54" width="2.27" height="2.27"/>
      <rect class="cls-3" x="79.37" y="6.8" width="2.27" height="2.27"/>
      <rect class="cls-3" x="79.37" y="9.07" width="2.27" height="2.27"/>
    </g>
  </g>
</svg>