<svg width="54" height="66" viewBox="0 0 54 66" fill="none" xmlns="http://www.w3.org/2000/svg">
<g filter="url(#filter0_d_216_356)">
<path d="M6.41498 57.546C4.94298 57.546 4.20698 56.879 4.20698 55.545C4.20698 55.269 4.22998 54.119 4.27598 52.095C4.36798 50.025 4.45999 47.38 4.55199 44.16C4.68998 40.894 4.78198 37.283 4.82798 33.327C4.91998 29.325 4.96599 25.254 4.96599 21.114C4.96599 15.686 4.89698 11.224 4.75898 7.72804C4.62098 4.23203 4.39099 1.97803 4.06899 0.966036C4.02299 0.690034 4.09198 0.460033 4.27598 0.276033C4.45999 0.0920352 4.68999 0.0690355 4.96599 0.207034C5.51798 0.299035 6.27698 0.529035 7.24299 0.897033C8.25499 1.26503 9.31299 1.67903 10.417 2.13903C11.567 2.59903 12.602 3.05903 13.522 3.51904C13.982 3.74904 14.442 3.86404 14.902 3.86404H35.947C36.591 3.86404 37.051 3.63404 37.327 3.17404C37.465 2.94403 37.695 2.55303 38.017 2.00104C38.385 1.44903 38.661 1.01203 38.845 0.690036C39.121 0.276036 39.466 0.0690355 39.88 0.0690355C40.11 0.0690355 40.294 0.0920352 40.432 0.138035C41.076 0.322035 41.904 0.667035 42.916 1.17303C43.928 1.63303 44.917 2.13903 45.883 2.69103C46.849 3.19703 47.608 3.63403 48.16 4.00203C48.758 4.41603 49.057 4.94503 49.057 5.58903C49.057 6.27903 48.666 6.80803 47.884 7.17603C47.746 7.22203 47.608 7.29103 47.47 7.38304C47.378 7.42904 47.286 7.49803 47.194 7.59003C46.504 8.05004 46.159 9.06204 46.159 10.626V17.25C46.159 21.436 46.182 25.599 46.228 29.739C46.32 33.833 46.412 37.582 46.504 40.986C46.642 44.344 46.734 47.104 46.78 49.266C46.872 51.382 46.918 52.578 46.918 52.854C46.918 53.774 46.205 54.51 44.779 55.062C43.353 55.614 41.697 55.89 39.811 55.89C38.385 55.89 37.672 55.223 37.672 53.889V51.957C37.672 51.589 37.534 51.29 37.258 51.06C37.028 50.784 36.729 50.646 36.361 50.646H14.626C14.304 50.646 14.005 50.784 13.729 51.06C13.453 51.29 13.315 51.589 13.315 51.957V54.579C13.315 55.499 12.625 56.212 11.245 56.718C9.91099 57.27 8.30099 57.546 6.41498 57.546ZM14.626 48.576H36.361C36.729 48.576 37.028 48.461 37.258 48.231C37.534 47.955 37.672 47.656 37.672 47.334V29.463C37.672 29.095 37.534 28.796 37.258 28.566C37.028 28.336 36.729 28.221 36.361 28.221H14.626C14.304 28.221 14.005 28.336 13.729 28.566C13.453 28.796 13.315 29.095 13.315 29.463V47.334C13.315 47.656 13.453 47.955 13.729 48.231C14.005 48.461 14.304 48.576 14.626 48.576ZM14.626 26.151H36.361C36.729 26.151 37.028 26.036 37.258 25.806C37.534 25.53 37.672 25.231 37.672 24.909V7.17603C37.672 6.80803 37.534 6.50903 37.258 6.27903C37.028 6.04903 36.729 5.93403 36.361 5.93403H14.626C14.304 5.93403 14.005 6.04903 13.729 6.27903C13.453 6.50903 13.315 6.80803 13.315 7.17603V24.909C13.315 25.231 13.453 25.53 13.729 25.806C14.005 26.036 14.304 26.151 14.626 26.151Z" fill="white"/>
</g>
<defs>
<filter id="filter0_d_216_356" x="0" y="0" width="53.0566" height="65.5461" filterUnits="userSpaceOnUse" color-interpolation-filters="sRGB">
<feFlood flood-opacity="0" result="BackgroundImageFix"/>
<feColorMatrix in="SourceAlpha" type="matrix" values="0 0 0 0 0 0 0 0 0 0 0 0 0 0 0 0 0 0 127 0" result="hardAlpha"/>
<feOffset dy="4"/>
<feGaussianBlur stdDeviation="2"/>
<feComposite in2="hardAlpha" operator="out"/>
<feColorMatrix type="matrix" values="0 0 0 0 0 0 0 0 0 0 0 0 0 0 0 0 0 0 0.25 0"/>
<feBlend mode="normal" in2="BackgroundImageFix" result="effect1_dropShadow_216_356"/>
<feBlend mode="normal" in="SourceGraphic" in2="effect1_dropShadow_216_356" result="shape"/>
</filter>
</defs>
</svg>
